#!OML:ASF F:\VICON\USERDATA\INSTALL\rory3\rory3.ASF
:FULLY-SPECIFIED
:DEGREES
18
root 0.8532006480726696 17.721802772318505 -15.393889055456011 0.6113400075123421 -7.2197125706931775 -8.965480143491552
lfemur -25.773692614385503 -5.691878675694681 -7.084759777245965
ltibia 12.623811740526218
lfoot -6.506937233027283 13.109876544341361
ltoes -0.4674952235707588
rfemur 11.399385492099059 8.3701773118323 35.48568707243485
rtibia 23.550309313884604
rfoot -17.988289093344875 -5.057513452718621
rtoes -6.620400934783472
lowerback 8.691003097879472 2.9330239827422844 9.205019548295214
upperback -0.29611949339038834 4.959953467631981 2.346412540809688
thorax -4.627072198514201 2.252443017034388 -3.2853737551746467
lowerneck -16.812704234562716 -2.84261542950505 -1.2787724152361162
upperneck 21.771091795632984 -3.68213502240683 0.257254614567753
head 9.702821685617254 -1.7836844112388488 -0.1831653277226939
lclavicle -9.152775297015075e-16 -7.746724830317487e-16
lhumerus -38.73860028643885 6.9987591500883575 81.50190738654723
lradius 21.81500931713788
lwrist 2.1818802551305794
lhand -26.959003094961908 19.654494168484693
lfingers 7.125020000000057
lthumb -0.3804530950148345 49.63389414512109
rclavicle -9.152775297015075e-16 -7.746724830317487e-16
rhumerus -21.92351193137391 -8.06254913772279 -82.99510278366309
rradius 29.72510770871674
rwrist 1.1132254815458769
rhand -18.355897913608295 25.0619051912272
rfingers 7.125020000000057
rthumb 7.926842084964683 -4.7694547841854975
19
root 0.9375114036764771 17.81860051904406 -14.527989430608624 0.02202707703496129 -7.234752530395324 -7.496884375523031
lfemur -24.74609318396242 -3.7194537201925826 -10.409514791141746
ltibia 15.301310682825015
lfoot 0.23017192286695076 5.892655758461191
ltoes -1.708385911241849
rfemur 12.902184664137208 7.80105866012067 33.32959039683866
rtibia 26.202908322513522
rfoot -14.400791596341389 -2.7755378422787684
rtoes -10.656987245298607
lowerback 8.540243628135723 2.913824110923123 7.867062965041934
upperback -0.202097630357355 4.766204274112296 2.1079347075039707
thorax -4.547452587321441 2.1937235742275525 -2.767045833109522
lowerneck -16.949603588391113 -2.8543553264262433 -1.4385598455800408
upperneck 22.056091254863674 -3.615015412867148 0.0913978878270385
head 9.828910830641808 -1.7837444104066542 -0.21042587670977675
lclavicle -9.152775577828692e-16 -7.746725873017373e-16
lhumerus -39.1725999816643 8.868087048860259 80.74980841395457
lradius 20.294109676707173
lwrist 1.1092110083685593
lhand -27.20780231710831 18.485995244478083
lfingers 7.125020000000057
lthumb -0.6207743169423917 48.4647952215013
rclavicle -9.152775577828692e-16 -7.746725873017373e-16
rhumerus -22.88961119700857 -9.356948363879242 -82.56980317765117
rradius 29.25010782278816
rwrist 1.544165123292074
rhand -19.790689624013407 23.01650748900491
rfingers 7.125020000000057
rthumb 6.541900376097644 -6.862462432136888
20
root 0.9908776160105293 17.91849819360897 -13.649489811220299 -1.0373163218468302 -5.646656785514567 -4.494633027067871
lfemur -22.27719455242144 -3.7424836612932593 -14.944307990354503
ltibia 16.29021029217682
lfoot 3.03202590828225 0.12930111645146614
ltoes -3.0354245078054936
rfemur 11.890785221364096 6.226152391201651 29.764295894031218
rtibia 32.99190578522263
rfoot -7.955996092874308 -1.7821097532160808
rtoes -9.70340811688059
lowerback 8.386504168873298 2.6323159903078874 4.809440773307649
upperback -0.3102033230805412 4.050037255154948 1.3735413798466456
thorax -4.793901383835559 1.89811637926621 -1.7586798755673825
lowerneck -16.25200688108148 -3.0291037920973256 -1.4555195728385244
upperneck 22.235290914843116 -3.89499378412639 0.19302295275659498
head 9.76652125368819 -1.9058527167498487 -0.19979805254211236
lclavicle -9.152774954211318e-16 -7.746725172918664e-16
lhumerus -39.319899878223524 10.017585756760031 79.69280985787103
lradius 18.120410190610848
lwrist -0.6389357640669289
lhand -27.039502843285 18.007495685096714
lfingers 7.125020000000057
lthumb -0.45825784311144513 47.98679566159174
rclavicle -9.152774954211318e-16 -7.746725172918664e-16
rhumerus -24.533709947272445 -12.34229657911887 -81.76360392449622
rradius 27.669708202321566
rwrist 2.5871042562636957
rhand -20.067988021905332 22.674007873765294
rfingers 7.125020000000057
rthumb 6.274171978888376 -7.213112038089153
21
root 0.8097997798359126 17.88517770179195 -4.61523361621439 -2.3922468183982364 -4.062527464239361 -3.6179691221725445
lfemur -20.947376627424674 -3.165953340317457 -18.358661729525757
ltibia 25.11878493422803
lfoot -2.9541960344905633 -2.4138991061781176
ltoes -5.013748451428469
rfemur 4.942463685887956 3.521500415364518 27.253845995272773
rtibia 50.384988752268555
rfoot 4.733472541408133 0.8335898074847528
rtoes 1.1891374502046057
lowerback 9.909180691955836 2.0603728317533783 3.2656083495204786
upperback -0.05852814104508358 3.193490998641429 0.9912256081326916
thorax -5.582462135962821 1.4945334346839538 -1.2967925164382494
lowerneck -16.385161142772887 -3.4024862572062013 -1.337060789409387
upperneck 21.937566945489372 -4.488477322712743 0.5039691027869673
head 9.700681635168426 -2.157593479791752 -0.19317509475487893
lclavicle -1.155030486609522e-15 -9.603140933235111e-16
lhumerus -38.17047263034984 9.845980178864442 79.9925795832214
lradius 17.888803542430097
lwrist 1.4751894093192721
lhand -26.870670684322807 19.144028477203715
lfingers 7.125020000000056
lthumb -0.294849314595212 49.12377380861787
rclavicle -1.155030486609522e-15 -9.603140933235111e-16
rhumerus -24.72662267356929 -14.651218933860223 -80.87757529851079
rradius 29.89363623186349
rwrist -0.2406335118110725
rhand -18.06929374380967 28.592919653128888
rfingers 7.125020000000056
rthumb 8.203991713714935 -7.534207282696845
22
root 0.8251188470622248 17.940664591221502 -4.226493386687942 -3.0268510726337614 -3.6485751904757637 -2.2576039870508327
lfemur -18.384006540852145 -2.7482868712317803 -20.37398198083883
ltibia 27.90950205818187
lfoot -4.624803176786889 -1.8763565655321863
ltoes -3.283532513594287
rfemur -0.1697332623214809 2.359013749741907 25.151525831419857
rtibia 62.02326782750036
rfoot 13.27138552259531 0.08284136336245318
rtoes 10.511752428822131
lowerback 10.428364696750013 1.9913386492642169 2.092221225314145
upperback 0.07422983396772026 2.9681760376223387 0.746494688976425
thorax -5.703123557369858 1.4040054200553063 -0.7773574883812825
lowerneck -16.307423164220356 -3.394080082266069 -1.359247548067192
upperneck 22.018537929214684 -4.486314106617361 0.6111747001261225
head 9.714535696604711 -2.152464584180225 -0.15366628263373605
lclavicle -7.511808785592469e-16 -6.47612147791638e-16
lhumerus -37.292762041015145 9.717018813883731 80.11878258216022
lradius 18.269509147956867
lwrist 2.3937874636116714
lhand -26.915620649380408 21.11610907346268
lfingers 7.125020000000057
lthumb -0.3382575469103086 51.089907053410734
rclavicle -7.511808785592469e-16 -6.47612147791638e-16
rhumerus -25.33122374404571 -15.880498728637903 -80.10409284681802
rradius 29.036249067546073
rwrist 0.7987370145750585
rhand -17.737594643102447 29.50261794648862
rfingers 7.125020000000057
rthumb 8.523813189464612 -7.08854018956136
23
root 0.8210919229839689 17.965122532111295 -4.833550876831971 -3.497064251837237 -3.631061336425326 -1.1478875130815556
lfemur -16.16817862047719 -2.881970414303737 -22.22339075575236
ltibia 27.863445859225557
lfoot -7.521674271831065 -0.8423829289075648
ltoes -1.1577810311955021
rfemur -6.470475843870201 0.9916163175001143 23.197925089656838
rtibia 71.86574299212567
rfoot 14.292483905481193 -2.7351478006286234
rtoes 15.594844407931703
lowerback 10.748761169656053 1.822727291495652 0.9048391922817367
upperback 0.18651363288955214 2.6007324786530766 0.5287316476823127
thorax -5.829765000373102 1.2510001901369927 -0.3370062857178958
lowerneck -16.284455868227397 -3.2502720460460663 -1.3701360613438094
upperneck 21.875769169048947 -4.291260767716585 0.5568775192378301
head 9.65452495790812 -2.059854139741859 -0.144086024033669
lclavicle -1.1379119410715412e-15 -9.470591582864263e-16
lhumerus -36.66718291446598 8.966503554755631 80.09538008562164
lradius 17.8187808567737
lwrist 2.945818545345894
lhand -27.59894026153445 20.77237435162519
lfingers 7.125020000000056
lthumb -0.9981476851985727 50.746301419291356
rclavicle -1.1379119410715412e-15 -9.470591582864263e-16
rhumerus -26.30436085201849 -17.656051718194497 -79.7123355566716
rradius 27.084193768471096
rwrist 1.8275297590334558
rhand -17.67005049167855 29.526931512030878
rfingers 7.125020000000056
rthumb 8.589372901202795 -7.701315524557557
24
root 0.8166531941964753 17.980135044742404 -4.773778582751618 -3.914757927125951 -3.674503899248624 -0.33682738421709857
lfemur -12.931237216546139 -2.802741285853947 -23.58305119626561
ltibia 27.52523333402128
lfoot -9.113538243940269 -0.15867466819176368
ltoes -0.15364257677035553
rfemur -13.33182415424438 -0.15934610411562433 21.883639516624868
rtibia 78.94880746752818
rfoot 10.49365981299112 -5.250240827089325
rtoes 16.361142267027446
lowerback 11.02732405993072 1.4496691092936618 -0.12150502019385145
upperback 0.3158505292009525 1.9764040464290065 0.5066053577291609
thorax -5.891482853451272 0.976217567018662 0.2889678729419279
lowerneck -16.194258093315437 -3.014206509615117 -1.3902193520135904
upperneck 21.869163702668924 -3.9447622787826684 0.4278224522997085
head 9.62242170275341 -1.908478834956233 -0.14217448000174038
lclavicle -1.3704363740820127e-15 -1.1271033711767062e-15
lhumerus -35.10064952563898 7.669915647868807 80.22506640011125
lradius 17.664285023565377
lwrist 3.3791660777482484
lhand -27.959643985781835 20.98677556618554
lfingers 7.125020000000056
lthumb -1.3465021310914236 50.960104329527454
rclavicle -1.3704363740820127e-15 -1.1271033711767062e-15
rhumerus -27.416624845410084 -19.303270663361687 -79.54767437009566
rradius 24.88003948245703
rwrist 3.2876368129489837
rhand -17.538807685017556 29.371731448843697
rfingers 7.125020000000056
rthumb 8.715737232964567 -7.716097798401938
